# xmcd
#
# Track frame offsets:
#	150
#	19130
#	62673
#	76910
#	97084
#	137047
#	157074
#	187179
#	206464
#	228966
#	249843
#	268025
#	290172
#
# Disc length: 4276 seconds
#
# Revision: 0
# Processed by: cddbd v1.4PL0 Copyright (c) Steve Scherf et al.
# Submitted via: EasyCDDAExtractor 4.5.0.1
#
DISCID=ba10b20d
DTITLE=Gary Moore  - Golden Ballads Collection
DYEAR=2001
DGENRE=Ballad
TTITLE0=Still Got The Blues
TTITLE1=Surrender
TTITLE2=I Loved Another Woman
TTITLE3=Cold Day In Hell
TTITLE4=The Sky Is Crying
TTITLE5=Oh Pretty Woman
TTITLE6=Story Of The Blues
TTITLE7=Merry Go Round
TTITLE8=Midnight Blues
TTITLE9=King Of The Blues
TTITLE10=One Day
TTITLE11=I Have Found My Love With You
TTITLE12=Parisienne Walkways
EXTD=
EXTT0=
EXTT1=
EXTT2=
EXTT3=
EXTT4=
EXTT5=
EXTT6=
EXTT7=
EXTT8=
EXTT9=
EXTT10=
EXTT11=
EXTT12=
PLAYORDER=
